<svg width="104" height="105" viewBox="0 0 104 105" fill="none" xmlns="http://www.w3.org/2000/svg">
<path d="M89.9855 0H14.0149C6.27521 0 0.000679016 6.3346 0.000679016 14.149V90.8505C0.000679016 98.6649 6.27496 104.999 14.0149 104.999H51.4832L51.5471 67.4784H41.8919C40.6372 67.4784 39.6188 66.454 39.6139 65.1872L39.5676 53.0926C39.5628 51.8188 40.5843 50.7837 41.8459 50.7837H51.4835V39.0972C51.4835 25.5352 59.6875 18.1505 71.6705 18.1505H81.5034C82.7615 18.1505 83.7817 19.1803 83.7817 20.4507V30.6489C83.7817 31.9188 82.7623 32.9483 81.5047 32.9491L75.4703 32.9519C68.9536 32.9519 67.6917 36.0784 67.6917 40.6666V50.7839H82.0112C83.3756 50.7839 84.4342 51.9868 84.2734 53.3548L82.8536 65.4494C82.7177 66.6068 81.7456 67.4789 80.5914 67.4789H67.7556L67.6917 105H89.986C97.7257 105 104 98.6654 104 90.8513V14.149C104 6.3346 97.7254 0 89.9855 0Z" fill="black"/>
</svg>
