<svg width="187" height="35" viewBox="0 0 187 35" fill="none" xmlns="http://www.w3.org/2000/svg">
<path d="M18.6562 3.75V30.9375C18.6562 31.2969 18.8516 31.5703 19.2422 31.7578C19.6484 31.9453 20.1094 32.0859 20.625 32.1797C21.1562 32.2734 21.6797 32.3438 22.1953 32.3906C22.7109 32.4219 23.0859 32.4609 23.3203 32.5078C23.4609 32.6797 23.5391 32.8047 23.5547 32.8828C23.5859 32.9453 23.6016 33.0469 23.6016 33.1875C23.6016 33.3281 23.5547 33.4453 23.4609 33.5391C23.3828 33.6328 23.2812 33.7031 23.1562 33.75C23.0312 33.8125 22.8906 33.8594 22.7344 33.8906C22.5938 33.9219 22.4609 33.9375 22.3359 33.9375C22.0234 33.9375 21.5469 33.9062 20.9062 33.8438C20.2656 33.7812 19.5859 33.7109 18.8672 33.6328C18.1641 33.5703 17.4766 33.5078 16.8047 33.4453C16.1484 33.3828 15.6406 33.3516 15.2812 33.3516C14.6719 33.3516 14.0859 33.3594 13.5234 33.375C12.9609 33.3906 12.375 33.4531 11.7656 33.5625C11.6406 33.5625 11.4375 33.5859 11.1562 33.6328C10.8906 33.6953 10.5938 33.7578 10.2656 33.8203C9.9375 33.8828 9.60938 33.9375 9.28125 33.9844C8.96875 34.0469 8.71094 34.0781 8.50781 34.0781C8.35156 34.0781 8.23438 34.0078 8.15625 33.8672C8.07812 33.7422 8.03906 33.6406 8.03906 33.5625C8.03906 33.3594 8.14844 33.1953 8.36719 33.0703C8.60156 32.9453 8.79688 32.8672 8.95312 32.8359C9.04688 32.7891 9.21875 32.7344 9.46875 32.6719C9.73438 32.6094 10.0234 32.5469 10.3359 32.4844C10.6484 32.4062 10.9453 32.3359 11.2266 32.2734C11.5234 32.1953 11.7578 32.125 11.9297 32.0625C12.1797 32 12.3984 31.9375 12.5859 31.875C12.7734 31.7969 12.9297 31.7031 13.0547 31.5938C13.1797 31.4688 13.2734 31.3125 13.3359 31.125C13.3984 30.9219 13.4297 30.6641 13.4297 30.3516V4.6875C13.4297 4.5625 13.4219 4.42969 13.4062 4.28906C13.3906 4.13281 13.3594 3.99219 13.3125 3.86719C13.2656 3.74219 13.1953 3.64062 13.1016 3.5625C13.0078 3.48438 12.875 3.44531 12.7031 3.44531H7.45312C6.75 3.44531 6.14844 3.50781 5.64844 3.63281C5.14844 3.74219 4.6875 3.92188 4.26562 4.17188C3.75 4.4375 3.22656 4.79688 2.69531 5.25C2.17969 5.70312 1.78125 6.17969 1.5 6.67969C1.45312 6.75781 1.40625 6.86719 1.35938 7.00781C1.32812 7.14844 1.28125 7.28906 1.21875 7.42969C1.15625 7.57031 1.08594 7.69531 1.00781 7.80469C0.929688 7.91406 0.835938 7.96875 0.726562 7.96875C0.664062 7.96875 0.59375 7.92188 0.515625 7.82812C0.4375 7.73438 0.359375 7.61719 0.28125 7.47656C0.203125 7.32031 0.132812 7.15625 0.0703125 6.98438C0.0234375 6.79688 0 6.61719 0 6.44531C0 6.10156 0.0703125 5.74219 0.210938 5.36719C0.367188 4.99219 0.554688 4.59375 0.773438 4.17188C0.992188 3.75 1.22656 3.29688 1.47656 2.8125C1.72656 2.3125 1.95312 1.76562 2.15625 1.17188V0.75C2.15625 0.640625 2.17969 0.523438 2.22656 0.398438C2.30469 0.257812 2.41406 0.179688 2.55469 0.164062C2.71094 0.132812 2.875 0.117188 3.04688 0.117188C3.1875 0.117188 3.30469 0.164062 3.39844 0.257812C3.49219 0.335938 3.58594 0.429688 3.67969 0.539062C3.77344 0.648438 3.875 0.765625 3.98438 0.890625C4.10938 1 4.25781 1.07812 4.42969 1.125C4.61719 1.17188 4.97656 1.23438 5.50781 1.3125C6.03906 1.375 6.76562 1.4375 7.6875 1.5C8.625 1.5625 9.76562 1.61719 11.1094 1.66406C12.4531 1.71094 14.0391 1.73438 15.8672 1.73438C16.3047 1.73438 16.8047 1.72656 17.3672 1.71094C17.9297 1.67969 18.5078 1.64844 19.1016 1.61719C19.7109 1.58594 20.3125 1.5625 20.9062 1.54688C21.5 1.51562 22.0469 1.5 22.5469 1.5C22.9375 1.5 23.2891 1.51562 23.6016 1.54688C23.9141 1.57812 24.25 1.625 24.6094 1.6875C24.7969 1.71875 25 1.75 25.2188 1.78125C25.4375 1.8125 25.6562 1.84375 25.875 1.875C26.0938 1.89062 26.2969 1.90625 26.4844 1.92188C26.6719 1.9375 26.8203 1.94531 26.9297 1.94531C27.2266 1.94531 27.375 1.78125 27.375 1.45312C27.375 1.28125 27.4297 1.11719 27.5391 0.960938C27.6797 0.789062 27.8672 0.585938 28.1016 0.351562C28.3359 0.117188 28.5391 0 28.7109 0C28.8359 0 28.9688 0.0859375 29.1094 0.257812C29.2656 0.429688 29.4141 0.640625 29.5547 0.890625C29.7109 1.125 29.8516 1.36719 29.9766 1.61719C30.1172 1.85156 30.2344 2.03906 30.3281 2.17969C30.4375 2.42969 30.5156 2.73438 30.5625 3.09375C30.6094 3.4375 30.6641 3.70312 30.7266 3.89062C30.7891 4.03125 30.9219 4.25781 31.125 4.57031C31.3438 4.88281 31.5625 5.21875 31.7812 5.57812C32 5.92188 32.1953 6.25781 32.3672 6.58594C32.5547 6.91406 32.6484 7.17188 32.6484 7.35938C32.6484 7.76562 32.4688 7.96875 32.1094 7.96875C31.8906 7.96875 31.625 7.84375 31.3125 7.59375C31.0156 7.34375 30.6953 7.05469 30.3516 6.72656C30.0234 6.39844 29.6875 6.07031 29.3438 5.74219C29 5.39844 28.6797 5.13281 28.3828 4.94531C28.1797 4.82031 27.8984 4.67969 27.5391 4.52344C27.1953 4.36719 26.8281 4.21094 26.4375 4.05469C26.0469 3.89844 25.6641 3.76562 25.2891 3.65625C24.9141 3.54688 24.5938 3.47656 24.3281 3.44531C23.9062 3.36719 23.4688 3.32812 23.0156 3.32812C22.5625 3.3125 22.125 3.30469 21.7031 3.30469H20.3672C20.3203 3.30469 20.2031 3.3125 20.0156 3.32812C19.8438 3.34375 19.6562 3.375 19.4531 3.42188C19.25 3.45312 19.0625 3.5 18.8906 3.5625C18.7344 3.60938 18.6562 3.67188 18.6562 3.75Z" fill="black"/>
<path d="M34.0078 33.0703C34.0078 32.8203 34.0625 32.6484 34.1719 32.5547C34.2969 32.4453 34.4453 32.3906 34.6172 32.3906H36.8203C37.4141 32.3438 37.7109 32.0156 37.7109 31.4062V12.9141C37.7109 12.3047 37.7188 11.7578 37.7344 11.2734C37.7656 10.7734 37.7969 10.2969 37.8281 9.84375C37.8594 9.39062 37.8828 8.94531 37.8984 8.50781C37.9297 8.07031 37.9453 7.60938 37.9453 7.125C37.9453 6.79688 37.8984 6.46875 37.8047 6.14062C37.7266 5.8125 37.6094 5.51562 37.4531 5.25C37.2969 4.98438 37.1016 4.76562 36.8672 4.59375C36.6484 4.42188 36.3906 4.33594 36.0938 4.33594C35.875 4.33594 35.6562 4.36719 35.4375 4.42969C35.2188 4.47656 35 4.53125 34.7812 4.59375C34.5781 4.65625 34.3906 4.71875 34.2188 4.78125C34.0469 4.82812 33.8984 4.85156 33.7734 4.85156C33.4453 4.85156 33.2812 4.70312 33.2812 4.40625C33.2812 4.28125 33.2969 4.16406 33.3281 4.05469C33.375 3.92969 33.4688 3.82812 33.6094 3.75C34.0781 3.51562 34.6406 3.26562 35.2969 3C35.9531 2.73438 36.625 2.46094 37.3125 2.17969C37.9062 1.91406 38.4219 1.65625 38.8594 1.40625C39.3125 1.15625 39.7969 0.898438 40.3125 0.632812C40.4844 0.507812 40.6484 0.414062 40.8047 0.351562C40.9766 0.273438 41.1484 0.234375 41.3203 0.234375C41.4609 0.234375 41.5547 0.359375 41.6016 0.609375C41.6172 0.640625 41.625 0.710938 41.625 0.820312C41.6406 0.929688 41.6562 1.05469 41.6719 1.19531C41.6875 1.32031 41.6953 1.4375 41.6953 1.54688C41.7109 1.65625 41.7188 1.73438 41.7188 1.78125V15.9141C41.7188 16.1172 41.7969 16.2188 41.9531 16.2188C42.5 15.5 43.0391 14.8203 43.5703 14.1797C44.1016 13.5234 44.7188 12.9297 45.4219 12.3984C45.9688 11.9922 46.5625 11.6484 47.2031 11.3672C47.8594 11.0859 48.5703 10.9453 49.3359 10.9453C49.8984 10.9453 50.4453 11 50.9766 11.1094C51.5234 11.2031 52.0391 11.3672 52.5234 11.6016C53.0078 11.8359 53.4531 12.1328 53.8594 12.4922C54.2656 12.8516 54.625 13.2891 54.9375 13.8047C55.1562 14.1797 55.3438 14.7109 55.5 15.3984C55.6562 16.0703 55.7812 16.7812 55.875 17.5312C55.9688 18.2812 56.0391 19.0078 56.0859 19.7109C56.1328 20.4141 56.1562 20.9766 56.1562 21.3984V31.8984C56.1562 32.1172 56.25 32.2266 56.4375 32.2266H59.1562C59.3281 32.2266 59.4688 32.25 59.5781 32.2969C59.7031 32.3281 59.7656 32.4141 59.7656 32.5547C59.7656 32.8203 59.6719 33.0547 59.4844 33.2578C59.3125 33.4609 59.1328 33.5625 58.9453 33.5625C58.2422 33.5625 57.5469 33.5469 56.8594 33.5156C56.1719 33.4688 55.4219 33.4453 54.6094 33.4453C53.7656 33.4453 52.9062 33.4688 52.0312 33.5156C51.1719 33.5469 50.3828 33.5625 49.6641 33.5625C49.1641 33.5625 48.8281 33.5312 48.6562 33.4688C48.5 33.3906 48.4219 33.1953 48.4219 32.8828C48.4219 32.6172 48.5 32.4531 48.6562 32.3906C48.8125 32.3125 49.0547 32.2734 49.3828 32.2734C49.8828 32.2734 50.3438 32.2812 50.7656 32.2969C51.1875 32.2969 51.5234 32.2969 51.7734 32.2969C51.8516 32.2969 51.9375 32.25 52.0312 32.1562C52.125 32.0625 52.1719 31.9766 52.1719 31.8984V21.0703C52.1719 20.6953 52.1641 20.2734 52.1484 19.8047C52.1484 19.3359 52.125 18.8672 52.0781 18.3984C52.0469 17.9297 51.9844 17.4844 51.8906 17.0625C51.8125 16.6406 51.6953 16.2891 51.5391 16.0078C51.0703 15.2109 50.4922 14.6562 49.8047 14.3438C49.1328 14.0156 48.4141 13.8516 47.6484 13.8516C47.2891 13.8516 46.9688 13.8672 46.6875 13.8984C46.4062 13.9141 46.1406 13.9609 45.8906 14.0391C45.6562 14.1016 45.4219 14.1875 45.1875 14.2969C44.9688 14.4062 44.7344 14.5547 44.4844 14.7422C43.625 15.3516 42.9688 16.0156 42.5156 16.7344C42.0625 17.4531 41.8359 18.2891 41.8359 19.2422V31.0078C41.8359 31.1016 41.8359 31.2266 41.8359 31.3828C41.8516 31.5391 41.875 31.6953 41.9062 31.8516C41.9375 31.9922 41.9844 32.1172 42.0469 32.2266C42.125 32.3359 42.2344 32.3906 42.375 32.3906H44.9766C45.2109 32.3906 45.4141 32.4453 45.5859 32.5547C45.7734 32.6484 45.8672 32.8203 45.8672 33.0703C45.8672 33.2578 45.8203 33.3828 45.7266 33.4453C45.6328 33.5078 45.4766 33.5703 45.2578 33.6328H43.5938C43.2031 33.6328 42.7812 33.625 42.3281 33.6094C41.875 33.6094 41.4219 33.6016 40.9688 33.5859C40.5312 33.5859 40.1094 33.5781 39.7031 33.5625C39.2969 33.5625 38.9453 33.5625 38.6484 33.5625C38.0391 33.5625 37.4453 33.5938 36.8672 33.6562C36.3047 33.7344 35.7734 33.7734 35.2734 33.7734H34.3359C34.2109 33.7734 34.125 33.7031 34.0781 33.5625C34.0312 33.4219 34.0078 33.2578 34.0078 33.0703Z" fill="black"/>
<path d="M72.9141 30.1875L72.7969 30.2812C72.7812 30.2812 72.6484 30.3984 72.3984 30.6328C72.1641 30.8516 71.8984 31.1016 71.6016 31.3828C71.3047 31.6484 71.0234 31.8984 70.7578 32.1328C70.4922 32.3672 70.3281 32.4922 70.2656 32.5078C69.7656 32.7891 69.1953 33.0547 68.5547 33.3047C67.9297 33.5547 67.2188 33.6797 66.4219 33.6797C65.8594 33.6797 65.2969 33.6016 64.7344 33.4453C64.1875 33.2891 63.6875 33.0234 63.2344 32.6484C62.7969 32.2578 62.4375 31.7422 62.1562 31.1016C61.8906 30.4609 61.7578 29.6484 61.7578 28.6641C61.7578 28.3047 61.8438 27.8516 62.0156 27.3047C62.2031 26.7422 62.5078 26.2344 62.9297 25.7812C63.3672 25.2656 63.8438 24.8359 64.3594 24.4922C64.8906 24.1328 65.4688 23.8203 66.0938 23.5547C66.7344 23.2734 67.4375 23.0234 68.2031 22.8047C68.9688 22.5859 69.8203 22.3594 70.7578 22.125C70.9766 22.0781 71.2109 22.0234 71.4609 21.9609C71.7109 21.8984 71.9453 21.8359 72.1641 21.7734C72.3984 21.7109 72.5938 21.6562 72.75 21.6094C72.9219 21.5469 73.0312 21.4922 73.0781 21.4453C73.1562 21.3828 73.2266 21.3281 73.2891 21.2812C73.3672 21.2344 73.4141 21.125 73.4297 20.9531C73.4922 20.5938 73.5469 20.2109 73.5938 19.8047C73.6562 19.3984 73.7031 18.9922 73.7344 18.5859C73.7812 18.1797 73.8125 17.7891 73.8281 17.4141C73.8438 17.0391 73.8516 16.7031 73.8516 16.4062C73.8516 15.7969 73.7344 15.2266 73.5 14.6953C73.2656 14.1641 72.9453 13.7031 72.5391 13.3125C72.1484 12.9219 71.6875 12.6172 71.1562 12.3984C70.625 12.1797 70.0625 12.0703 69.4688 12.0703C69 12.0703 68.5078 12.1875 67.9922 12.4219C67.4922 12.6406 67.0312 12.9375 66.6094 13.3125C66.2031 13.6875 65.8672 14.1172 65.6016 14.6016C65.3359 15.0703 65.2031 15.5547 65.2031 16.0547C65.2031 16.2891 65.2656 16.4766 65.3906 16.6172C65.5156 16.7578 65.6484 16.8906 65.7891 17.0156C65.9297 17.1406 66.0625 17.2812 66.1875 17.4375C66.3125 17.5938 66.375 17.8047 66.375 18.0703C66.375 18.7109 66.1719 19.2109 65.7656 19.5703C65.3594 19.9297 64.8594 20.1094 64.2656 20.1094C63.9062 20.1094 63.5859 20.0391 63.3047 19.8984C63.0391 19.7422 62.8047 19.5469 62.6016 19.3125C62.3984 19.0625 62.2422 18.7812 62.1328 18.4688C62.0391 18.1562 61.9922 17.8359 61.9922 17.5078C61.9922 17.1953 62.0781 16.8594 62.25 16.5C62.4219 16.1406 62.6328 15.7891 62.8828 15.4453C63.1328 15.1016 63.3906 14.7812 63.6562 14.4844C63.9375 14.1719 64.1719 13.9219 64.3594 13.7344C64.7031 13.4062 65.0312 13.1172 65.3438 12.8672C65.6719 12.6172 66.0156 12.3672 66.375 12.1172C66.6406 11.9453 66.9141 11.8047 67.1953 11.6953C67.4766 11.5859 67.75 11.4922 68.0156 11.4141C68.1719 11.3516 68.3828 11.2812 68.6484 11.2031C68.9297 11.1094 69.2344 11.0234 69.5625 10.9453C69.9062 10.8672 70.2578 10.8047 70.6172 10.7578C70.9922 10.6953 71.3516 10.6641 71.6953 10.6641C72.4297 10.6641 73.1484 10.7656 73.8516 10.9688C74.5703 11.1719 75.2031 11.4922 75.75 11.9297C76.3125 12.3672 76.7656 12.9297 77.1094 13.6172C77.4531 14.3047 77.625 15.125 77.625 16.0781C77.625 17.1406 77.5703 18.2266 77.4609 19.3359C77.3516 20.4453 77.2266 21.5078 77.0859 22.5234C76.9609 23.5391 76.8438 24.4688 76.7344 25.3125C76.625 26.1562 76.5703 26.8359 76.5703 27.3516C76.5703 27.6172 76.5938 27.9531 76.6406 28.3594C76.6875 28.75 76.7734 29.1328 76.8984 29.5078C77.0391 29.8672 77.2266 30.1797 77.4609 30.4453C77.6953 30.7109 78 30.8438 78.375 30.8438C78.8125 30.8438 79.2344 30.7422 79.6406 30.5391C80.0469 30.3359 80.4219 30.0781 80.7656 29.7656C81.1094 29.4531 81.4141 29.1094 81.6797 28.7344C81.9609 28.3594 82.1875 27.9922 82.3594 27.6328C82.3906 27.5703 82.4219 27.5078 82.4531 27.4453C82.5 27.3672 82.5625 27.3281 82.6406 27.3281C82.7031 27.3281 82.7344 27.3828 82.7344 27.4922V27.7266C82.7344 28.4141 82.6016 29.1094 82.3359 29.8125C82.0859 30.5 81.7109 31.1328 81.2109 31.7109C80.7266 32.2734 80.125 32.7344 79.4062 33.0938C78.6875 33.4531 77.8594 33.6328 76.9219 33.6328C76.75 33.6328 76.5469 33.6172 76.3125 33.5859C76.0938 33.5703 75.8828 33.5234 75.6797 33.4453C75.2734 33.2422 74.9375 33.0234 74.6719 32.7891C74.4062 32.5391 74.1719 32.2812 73.9688 32.0156C73.7812 31.75 73.6016 31.4688 73.4297 31.1719C73.2734 30.8594 73.1016 30.5312 72.9141 30.1875ZM65.4844 29.3438C65.4844 29.7344 65.5625 30.0703 65.7188 30.3516C65.875 30.6328 66.0781 30.8672 66.3281 31.0547C66.5938 31.2266 66.8906 31.3594 67.2188 31.4531C67.5469 31.5312 67.875 31.5703 68.2031 31.5703C68.6094 31.5703 69 31.5312 69.375 31.4531C69.7656 31.3594 70.1328 31.2422 70.4766 31.1016C70.8203 30.9609 71.1328 30.8125 71.4141 30.6562C71.7109 30.4844 71.9766 30.3203 72.2109 30.1641C72.6016 29.8203 72.7969 29.4688 72.7969 29.1094C72.7969 27.9531 72.8672 26.8672 73.0078 25.8516C73.1641 24.8203 73.2422 23.8125 73.2422 22.8281C73.2422 22.7188 73.2266 22.6016 73.1953 22.4766C73.1797 22.3516 73.1094 22.2891 72.9844 22.2891C72.8438 22.2891 72.7031 22.3125 72.5625 22.3594C72.4375 22.3906 72.3203 22.4219 72.2109 22.4531C71.5234 22.7031 70.8516 22.9766 70.1953 23.2734C69.5391 23.5703 68.8906 23.875 68.25 24.1875C67.8125 24.4219 67.4219 24.7344 67.0781 25.125C66.7344 25.5156 66.4453 25.9453 66.2109 26.4141C65.9766 26.8828 65.7969 27.375 65.6719 27.8906C65.5469 28.3906 65.4844 28.875 65.4844 29.3438Z" fill="black"/>
<path d="M102.117 31.6875V18.4688C102.117 16.8125 101.688 15.5625 100.828 14.7188C99.9844 13.875 98.8203 13.4531 97.3359 13.4531C96.6328 13.4531 95.9922 13.5234 95.4141 13.6641C94.8359 13.8047 94.3828 14.0078 94.0547 14.2734C93.5547 14.6797 93.1406 15.0781 92.8125 15.4688C92.5 15.8594 92.25 16.2812 92.0625 16.7344C91.875 17.1719 91.7422 17.6641 91.6641 18.2109C91.5859 18.7578 91.5469 19.3906 91.5469 20.1094V31.2422C91.5469 31.6484 91.6641 31.9297 91.8984 32.0859C92.1328 32.2266 92.5547 32.2969 93.1641 32.2969H94.5C95.0625 32.2969 95.3438 32.4766 95.3438 32.8359C95.3438 33.3047 95.1172 33.5703 94.6641 33.6328H93.3984C92.8047 33.6328 92.1953 33.6172 91.5703 33.5859C90.9609 33.5703 90.2891 33.5625 89.5547 33.5625C89.2734 33.5625 88.9062 33.5703 88.4531 33.5859C88.0156 33.6016 87.5469 33.6094 87.0469 33.6094C86.5469 33.625 86.0469 33.6406 85.5469 33.6562C85.0469 33.6719 84.6094 33.6797 84.2344 33.6797C83.8906 33.6797 83.7188 33.5078 83.7188 33.1641C83.7188 32.7734 83.9219 32.5547 84.3281 32.5078C84.8438 32.4609 85.3594 32.4375 85.875 32.4375H87.2109C87.2891 32.4375 87.375 32.3984 87.4688 32.3203C87.5625 32.2422 87.6094 32.1406 87.6094 32.0156V22.1719C87.6094 21.6406 87.6406 20.9922 87.7031 20.2266C87.7812 19.4609 87.8203 18.6875 87.8203 17.9062C87.8203 17.5312 87.8047 17.1719 87.7734 16.8281C87.7422 16.4688 87.6875 16.1406 87.6094 15.8438C87.5312 15.5312 87.4062 15.2578 87.2344 15.0234C87.0781 14.7891 86.875 14.6016 86.625 14.4609C86.5469 14.3984 86.3594 14.3516 86.0625 14.3203C85.7656 14.2891 85.4531 14.2734 85.125 14.2734C84.8594 14.2734 84.6016 14.2891 84.3516 14.3203C84.1172 14.3359 83.9609 14.3438 83.8828 14.3438C83.5859 14.3438 83.3984 14.3047 83.3203 14.2266C83.2578 14.1641 83.2266 14.1094 83.2266 14.0625C83.2266 13.9531 83.2969 13.8672 83.4375 13.8047C83.5938 13.7422 83.8047 13.6484 84.0703 13.5234C84.1641 13.4922 84.3125 13.4531 84.5156 13.4062C84.7188 13.3594 84.9219 13.3125 85.125 13.2656C85.3438 13.2188 85.5391 13.1797 85.7109 13.1484C85.8984 13.1016 86.0156 13.0781 86.0625 13.0781C86.8438 12.875 87.6172 12.5781 88.3828 12.1875C89.1641 11.7969 89.9297 11.4609 90.6797 11.1797C90.7578 11.1328 90.8516 11.0938 90.9609 11.0625C91.0234 11.0469 91.0781 11.0312 91.125 11.0156C91.375 11.1094 91.5 11.3125 91.5 11.625C91.5 11.9531 91.4609 12.2656 91.3828 12.5625C91.3047 12.8594 91.2656 13.125 91.2656 13.3594C91.2656 13.5 91.2656 13.7109 91.2656 13.9922C91.2812 14.2578 91.3047 14.5312 91.3359 14.8125C91.3672 15.0781 91.3984 15.3203 91.4297 15.5391C91.4766 15.7422 91.5391 15.8438 91.6172 15.8438C91.6797 15.8438 91.8125 15.7188 92.0156 15.4688C92.2344 15.2031 92.4922 14.8906 92.7891 14.5312C93.0859 14.1562 93.4141 13.7656 93.7734 13.3594C94.1484 12.9531 94.5234 12.6016 94.8984 12.3047C95.6484 11.7578 96.3906 11.3516 97.125 11.0859C97.875 10.8203 98.7344 10.6875 99.7031 10.6875C100.969 10.6875 101.992 10.8594 102.773 11.2031C103.57 11.5469 104.195 12 104.648 12.5625C105.117 13.1094 105.445 13.7344 105.633 14.4375C105.82 15.125 105.938 15.8125 105.984 16.5C106.016 16.8594 106.039 17.2266 106.055 17.6016C106.086 17.9609 106.102 18.3203 106.102 18.6797V27.3984C106.102 27.7891 106.086 28.1484 106.055 28.4766C106.039 28.7891 106.016 29.1016 105.984 29.4141C105.969 29.7109 105.945 30.0156 105.914 30.3281C105.898 30.625 105.891 30.9453 105.891 31.2891C105.891 31.4766 105.93 31.625 106.008 31.7344C106.102 31.8281 106.266 31.8984 106.5 31.9453C106.734 31.9922 107.055 32.0234 107.461 32.0391C107.867 32.0547 108.383 32.0625 109.008 32.0625C109.273 32.0625 109.461 32.1719 109.57 32.3906C109.695 32.5938 109.758 32.7812 109.758 32.9531C109.758 33.125 109.711 33.2578 109.617 33.3516C109.523 33.4297 109.406 33.4922 109.266 33.5391C109.141 33.5859 109 33.6094 108.844 33.6094C108.688 33.625 108.539 33.6328 108.398 33.6328C107.711 33.6328 106.938 33.6094 106.078 33.5625C105.234 33.5312 104.414 33.5156 103.617 33.5156C103.367 33.5156 103.102 33.5234 102.82 33.5391C102.555 33.5547 102.234 33.5625 101.859 33.5625C101.484 33.5781 101.039 33.5938 100.523 33.6094C100.023 33.625 99.4062 33.6328 98.6719 33.6328C98.4375 33.6328 98.2812 33.5703 98.2031 33.4453C98.1406 33.3203 98.1094 33.1562 98.1094 32.9531C98.1094 32.5625 98.2969 32.3438 98.6719 32.2969C98.8438 32.2812 99.0156 32.2734 99.1875 32.2734C99.375 32.2734 99.5703 32.2734 99.7734 32.2734C100.07 32.2734 100.359 32.2656 100.641 32.25C100.922 32.2344 101.172 32.2031 101.391 32.1562C101.609 32.1094 101.781 32.0469 101.906 31.9688C102.047 31.8906 102.117 31.7969 102.117 31.6875Z" fill="black"/>
<path d="M123.023 30.1875L122.906 30.2812C122.891 30.2812 122.758 30.3984 122.508 30.6328C122.273 30.8516 122.008 31.1016 121.711 31.3828C121.414 31.6484 121.133 31.8984 120.867 32.1328C120.602 32.3672 120.438 32.4922 120.375 32.5078C119.875 32.7891 119.305 33.0547 118.664 33.3047C118.039 33.5547 117.328 33.6797 116.531 33.6797C115.969 33.6797 115.406 33.6016 114.844 33.4453C114.297 33.2891 113.797 33.0234 113.344 32.6484C112.906 32.2578 112.547 31.7422 112.266 31.1016C112 30.4609 111.867 29.6484 111.867 28.6641C111.867 28.3047 111.953 27.8516 112.125 27.3047C112.312 26.7422 112.617 26.2344 113.039 25.7812C113.477 25.2656 113.953 24.8359 114.469 24.4922C115 24.1328 115.578 23.8203 116.203 23.5547C116.844 23.2734 117.547 23.0234 118.312 22.8047C119.078 22.5859 119.93 22.3594 120.867 22.125C121.086 22.0781 121.32 22.0234 121.57 21.9609C121.82 21.8984 122.055 21.8359 122.273 21.7734C122.508 21.7109 122.703 21.6562 122.859 21.6094C123.031 21.5469 123.141 21.4922 123.188 21.4453C123.266 21.3828 123.336 21.3281 123.398 21.2812C123.477 21.2344 123.523 21.125 123.539 20.9531C123.602 20.5938 123.656 20.2109 123.703 19.8047C123.766 19.3984 123.812 18.9922 123.844 18.5859C123.891 18.1797 123.922 17.7891 123.938 17.4141C123.953 17.0391 123.961 16.7031 123.961 16.4062C123.961 15.7969 123.844 15.2266 123.609 14.6953C123.375 14.1641 123.055 13.7031 122.648 13.3125C122.258 12.9219 121.797 12.6172 121.266 12.3984C120.734 12.1797 120.172 12.0703 119.578 12.0703C119.109 12.0703 118.617 12.1875 118.102 12.4219C117.602 12.6406 117.141 12.9375 116.719 13.3125C116.312 13.6875 115.977 14.1172 115.711 14.6016C115.445 15.0703 115.312 15.5547 115.312 16.0547C115.312 16.2891 115.375 16.4766 115.5 16.6172C115.625 16.7578 115.758 16.8906 115.898 17.0156C116.039 17.1406 116.172 17.2812 116.297 17.4375C116.422 17.5938 116.484 17.8047 116.484 18.0703C116.484 18.7109 116.281 19.2109 115.875 19.5703C115.469 19.9297 114.969 20.1094 114.375 20.1094C114.016 20.1094 113.695 20.0391 113.414 19.8984C113.148 19.7422 112.914 19.5469 112.711 19.3125C112.508 19.0625 112.352 18.7812 112.242 18.4688C112.148 18.1562 112.102 17.8359 112.102 17.5078C112.102 17.1953 112.188 16.8594 112.359 16.5C112.531 16.1406 112.742 15.7891 112.992 15.4453C113.242 15.1016 113.5 14.7812 113.766 14.4844C114.047 14.1719 114.281 13.9219 114.469 13.7344C114.812 13.4062 115.141 13.1172 115.453 12.8672C115.781 12.6172 116.125 12.3672 116.484 12.1172C116.75 11.9453 117.023 11.8047 117.305 11.6953C117.586 11.5859 117.859 11.4922 118.125 11.4141C118.281 11.3516 118.492 11.2812 118.758 11.2031C119.039 11.1094 119.344 11.0234 119.672 10.9453C120.016 10.8672 120.367 10.8047 120.727 10.7578C121.102 10.6953 121.461 10.6641 121.805 10.6641C122.539 10.6641 123.258 10.7656 123.961 10.9688C124.68 11.1719 125.312 11.4922 125.859 11.9297C126.422 12.3672 126.875 12.9297 127.219 13.6172C127.562 14.3047 127.734 15.125 127.734 16.0781C127.734 17.1406 127.68 18.2266 127.57 19.3359C127.461 20.4453 127.336 21.5078 127.195 22.5234C127.07 23.5391 126.953 24.4688 126.844 25.3125C126.734 26.1562 126.68 26.8359 126.68 27.3516C126.68 27.6172 126.703 27.9531 126.75 28.3594C126.797 28.75 126.883 29.1328 127.008 29.5078C127.148 29.8672 127.336 30.1797 127.57 30.4453C127.805 30.7109 128.109 30.8438 128.484 30.8438C128.922 30.8438 129.344 30.7422 129.75 30.5391C130.156 30.3359 130.531 30.0781 130.875 29.7656C131.219 29.4531 131.523 29.1094 131.789 28.7344C132.07 28.3594 132.297 27.9922 132.469 27.6328C132.5 27.5703 132.531 27.5078 132.562 27.4453C132.609 27.3672 132.672 27.3281 132.75 27.3281C132.812 27.3281 132.844 27.3828 132.844 27.4922V27.7266C132.844 28.4141 132.711 29.1094 132.445 29.8125C132.195 30.5 131.82 31.1328 131.32 31.7109C130.836 32.2734 130.234 32.7344 129.516 33.0938C128.797 33.4531 127.969 33.6328 127.031 33.6328C126.859 33.6328 126.656 33.6172 126.422 33.5859C126.203 33.5703 125.992 33.5234 125.789 33.4453C125.383 33.2422 125.047 33.0234 124.781 32.7891C124.516 32.5391 124.281 32.2812 124.078 32.0156C123.891 31.75 123.711 31.4688 123.539 31.1719C123.383 30.8594 123.211 30.5312 123.023 30.1875ZM115.594 29.3438C115.594 29.7344 115.672 30.0703 115.828 30.3516C115.984 30.6328 116.188 30.8672 116.438 31.0547C116.703 31.2266 117 31.3594 117.328 31.4531C117.656 31.5312 117.984 31.5703 118.312 31.5703C118.719 31.5703 119.109 31.5312 119.484 31.4531C119.875 31.3594 120.242 31.2422 120.586 31.1016C120.93 30.9609 121.242 30.8125 121.523 30.6562C121.82 30.4844 122.086 30.3203 122.32 30.1641C122.711 29.8203 122.906 29.4688 122.906 29.1094C122.906 27.9531 122.977 26.8672 123.117 25.8516C123.273 24.8203 123.352 23.8125 123.352 22.8281C123.352 22.7188 123.336 22.6016 123.305 22.4766C123.289 22.3516 123.219 22.2891 123.094 22.2891C122.953 22.2891 122.812 22.3125 122.672 22.3594C122.547 22.3906 122.43 22.4219 122.32 22.4531C121.633 22.7031 120.961 22.9766 120.305 23.2734C119.648 23.5703 119 23.875 118.359 24.1875C117.922 24.4219 117.531 24.7344 117.188 25.125C116.844 25.5156 116.555 25.9453 116.32 26.4141C116.086 26.8828 115.906 27.375 115.781 27.8906C115.656 28.3906 115.594 28.875 115.594 29.3438Z" fill="black"/>
<path d="M134.32 30.1875C134.32 29.7656 134.414 29.3516 134.602 28.9453C134.805 28.5234 134.953 28.1328 135.047 27.7734C135.047 27.7109 135.062 27.5859 135.094 27.3984C135.141 27.1953 135.188 26.9844 135.234 26.7656C135.297 26.5312 135.352 26.3203 135.398 26.1328C135.445 25.9453 135.477 25.8125 135.492 25.7344C135.539 25.5156 135.648 25.4062 135.82 25.4062C136.07 25.4062 136.203 25.5547 136.219 25.8516C136.25 26.0703 136.258 26.2812 136.242 26.4844C136.242 26.6719 136.266 26.8984 136.312 27.1641C136.453 27.8984 136.648 28.5938 136.898 29.25C137.164 29.8906 137.5 30.4609 137.906 30.9609C138.328 31.4609 138.828 31.8594 139.406 32.1562C140 32.4375 140.695 32.5781 141.492 32.5781C142.07 32.5781 142.625 32.4922 143.156 32.3203C143.688 32.1328 144.156 31.875 144.562 31.5469C144.984 31.2188 145.312 30.8125 145.547 30.3281C145.797 29.8438 145.922 29.2969 145.922 28.6875C145.922 27.7344 145.75 26.9531 145.406 26.3438C145.078 25.7344 144.641 25.2266 144.094 24.8203C143.562 24.4141 142.945 24.0859 142.242 23.8359C141.555 23.5703 140.844 23.3203 140.109 23.0859C139.391 22.8359 138.68 22.5703 137.977 22.2891C137.289 21.9922 136.672 21.6094 136.125 21.1406C135.594 20.6562 135.156 20.0547 134.812 19.3359C134.484 18.6172 134.32 17.7109 134.32 16.6172C134.32 15.9453 134.438 15.3672 134.672 14.8828C134.906 14.3828 135.117 13.9844 135.305 13.6875C135.539 13.3281 135.836 12.9688 136.195 12.6094C136.555 12.2344 136.969 11.9062 137.438 11.625C137.906 11.3281 138.43 11.0859 139.008 10.8984C139.602 10.7109 140.242 10.6172 140.93 10.6172C141.539 10.6172 142.195 10.7422 142.898 10.9922C143.617 11.2266 144.242 11.5625 144.773 12C144.945 12.1406 145.117 12.2969 145.289 12.4688C145.461 12.6406 145.633 12.7266 145.805 12.7266C146.023 12.7266 146.203 12.6562 146.344 12.5156C146.484 12.3594 146.625 12.1562 146.766 11.9062C146.797 11.875 146.828 11.8594 146.859 11.8594C146.906 11.8438 146.945 11.8359 146.977 11.8359C147.023 11.8359 147.055 11.8828 147.07 11.9766C147.102 12.0547 147.125 12.1484 147.141 12.2578C147.172 12.3516 147.188 12.4531 147.188 12.5625C147.203 12.6562 147.211 12.7266 147.211 12.7734C147.211 12.8203 147.188 12.9766 147.141 13.2422C147.109 13.5078 147.055 13.8281 146.977 14.2031C146.914 14.5625 146.836 14.9531 146.742 15.375C146.664 15.7812 146.57 16.1641 146.461 16.5234C146.367 16.8672 146.266 17.1562 146.156 17.3906C146.062 17.625 145.969 17.7422 145.875 17.7422C145.844 17.7422 145.812 17.7344 145.781 17.7188C145.719 17.6875 145.688 17.6562 145.688 17.625C145.562 17.4062 145.477 17.2188 145.43 17.0625C145.383 16.9062 145.344 16.7578 145.312 16.6172C145.297 16.4766 145.281 16.3359 145.266 16.1953C145.266 16.0391 145.242 15.8672 145.195 15.6797C145.164 15.5547 145.133 15.4375 145.102 15.3281C145.07 15.2031 145.031 15.0938 144.984 15C144.781 14.4844 144.57 14.0625 144.352 13.7344C144.133 13.4062 143.828 13.0703 143.438 12.7266C143.172 12.4609 142.93 12.2578 142.711 12.1172C142.508 11.9609 142.289 11.8516 142.055 11.7891C141.82 11.7109 141.547 11.6641 141.234 11.6484C140.922 11.6328 140.539 11.625 140.086 11.625C139.648 11.625 139.242 11.7266 138.867 11.9297C138.508 12.1172 138.195 12.375 137.93 12.7031C137.664 13.0312 137.453 13.4141 137.297 13.8516C137.156 14.2734 137.086 14.7188 137.086 15.1875C137.086 15.9688 137.25 16.6094 137.578 17.1094C137.922 17.5938 138.367 18.0078 138.914 18.3516C139.477 18.6797 140.109 18.9609 140.812 19.1953C141.516 19.4297 142.227 19.6719 142.945 19.9219C143.68 20.1719 144.398 20.4688 145.102 20.8125C145.805 21.1406 146.43 21.5781 146.977 22.125C147.539 22.6562 147.984 23.3281 148.312 24.1406C148.656 24.9375 148.828 25.9297 148.828 27.1172C148.828 27.8984 148.625 28.6875 148.219 29.4844C147.812 30.2656 147.312 31 146.719 31.6875C146.453 32 146.094 32.2891 145.641 32.5547C145.203 32.8047 144.711 33.0234 144.164 33.2109C143.633 33.3984 143.07 33.5391 142.477 33.6328C141.898 33.7422 141.328 33.7969 140.766 33.7969C140.203 33.7969 139.555 33.6719 138.82 33.4219C138.086 33.1719 137.383 32.8594 136.711 32.4844C136.039 32.1094 135.469 31.7188 135 31.3125C134.547 30.8906 134.32 30.5156 134.32 30.1875Z" fill="black"/>
<path d="M162.961 30.1875L162.844 30.2812C162.828 30.2812 162.695 30.3984 162.445 30.6328C162.211 30.8516 161.945 31.1016 161.648 31.3828C161.352 31.6484 161.07 31.8984 160.805 32.1328C160.539 32.3672 160.375 32.4922 160.312 32.5078C159.812 32.7891 159.242 33.0547 158.602 33.3047C157.977 33.5547 157.266 33.6797 156.469 33.6797C155.906 33.6797 155.344 33.6016 154.781 33.4453C154.234 33.2891 153.734 33.0234 153.281 32.6484C152.844 32.2578 152.484 31.7422 152.203 31.1016C151.938 30.4609 151.805 29.6484 151.805 28.6641C151.805 28.3047 151.891 27.8516 152.062 27.3047C152.25 26.7422 152.555 26.2344 152.977 25.7812C153.414 25.2656 153.891 24.8359 154.406 24.4922C154.938 24.1328 155.516 23.8203 156.141 23.5547C156.781 23.2734 157.484 23.0234 158.25 22.8047C159.016 22.5859 159.867 22.3594 160.805 22.125C161.023 22.0781 161.258 22.0234 161.508 21.9609C161.758 21.8984 161.992 21.8359 162.211 21.7734C162.445 21.7109 162.641 21.6562 162.797 21.6094C162.969 21.5469 163.078 21.4922 163.125 21.4453C163.203 21.3828 163.273 21.3281 163.336 21.2812C163.414 21.2344 163.461 21.125 163.477 20.9531C163.539 20.5938 163.594 20.2109 163.641 19.8047C163.703 19.3984 163.75 18.9922 163.781 18.5859C163.828 18.1797 163.859 17.7891 163.875 17.4141C163.891 17.0391 163.898 16.7031 163.898 16.4062C163.898 15.7969 163.781 15.2266 163.547 14.6953C163.312 14.1641 162.992 13.7031 162.586 13.3125C162.195 12.9219 161.734 12.6172 161.203 12.3984C160.672 12.1797 160.109 12.0703 159.516 12.0703C159.047 12.0703 158.555 12.1875 158.039 12.4219C157.539 12.6406 157.078 12.9375 156.656 13.3125C156.25 13.6875 155.914 14.1172 155.648 14.6016C155.383 15.0703 155.25 15.5547 155.25 16.0547C155.25 16.2891 155.312 16.4766 155.438 16.6172C155.562 16.7578 155.695 16.8906 155.836 17.0156C155.977 17.1406 156.109 17.2812 156.234 17.4375C156.359 17.5938 156.422 17.8047 156.422 18.0703C156.422 18.7109 156.219 19.2109 155.812 19.5703C155.406 19.9297 154.906 20.1094 154.312 20.1094C153.953 20.1094 153.633 20.0391 153.352 19.8984C153.086 19.7422 152.852 19.5469 152.648 19.3125C152.445 19.0625 152.289 18.7812 152.18 18.4688C152.086 18.1562 152.039 17.8359 152.039 17.5078C152.039 17.1953 152.125 16.8594 152.297 16.5C152.469 16.1406 152.68 15.7891 152.93 15.4453C153.18 15.1016 153.438 14.7812 153.703 14.4844C153.984 14.1719 154.219 13.9219 154.406 13.7344C154.75 13.4062 155.078 13.1172 155.391 12.8672C155.719 12.6172 156.062 12.3672 156.422 12.1172C156.688 11.9453 156.961 11.8047 157.242 11.6953C157.523 11.5859 157.797 11.4922 158.062 11.4141C158.219 11.3516 158.43 11.2812 158.695 11.2031C158.977 11.1094 159.281 11.0234 159.609 10.9453C159.953 10.8672 160.305 10.8047 160.664 10.7578C161.039 10.6953 161.398 10.6641 161.742 10.6641C162.477 10.6641 163.195 10.7656 163.898 10.9688C164.617 11.1719 165.25 11.4922 165.797 11.9297C166.359 12.3672 166.812 12.9297 167.156 13.6172C167.5 14.3047 167.672 15.125 167.672 16.0781C167.672 17.1406 167.617 18.2266 167.508 19.3359C167.398 20.4453 167.273 21.5078 167.133 22.5234C167.008 23.5391 166.891 24.4688 166.781 25.3125C166.672 26.1562 166.617 26.8359 166.617 27.3516C166.617 27.6172 166.641 27.9531 166.688 28.3594C166.734 28.75 166.82 29.1328 166.945 29.5078C167.086 29.8672 167.273 30.1797 167.508 30.4453C167.742 30.7109 168.047 30.8438 168.422 30.8438C168.859 30.8438 169.281 30.7422 169.688 30.5391C170.094 30.3359 170.469 30.0781 170.812 29.7656C171.156 29.4531 171.461 29.1094 171.727 28.7344C172.008 28.3594 172.234 27.9922 172.406 27.6328C172.438 27.5703 172.469 27.5078 172.5 27.4453C172.547 27.3672 172.609 27.3281 172.688 27.3281C172.75 27.3281 172.781 27.3828 172.781 27.4922V27.7266C172.781 28.4141 172.648 29.1094 172.383 29.8125C172.133 30.5 171.758 31.1328 171.258 31.7109C170.773 32.2734 170.172 32.7344 169.453 33.0938C168.734 33.4531 167.906 33.6328 166.969 33.6328C166.797 33.6328 166.594 33.6172 166.359 33.5859C166.141 33.5703 165.93 33.5234 165.727 33.4453C165.32 33.2422 164.984 33.0234 164.719 32.7891C164.453 32.5391 164.219 32.2812 164.016 32.0156C163.828 31.75 163.648 31.4688 163.477 31.1719C163.32 30.8594 163.148 30.5312 162.961 30.1875ZM155.531 29.3438C155.531 29.7344 155.609 30.0703 155.766 30.3516C155.922 30.6328 156.125 30.8672 156.375 31.0547C156.641 31.2266 156.938 31.3594 157.266 31.4531C157.594 31.5312 157.922 31.5703 158.25 31.5703C158.656 31.5703 159.047 31.5312 159.422 31.4531C159.812 31.3594 160.18 31.2422 160.523 31.1016C160.867 30.9609 161.18 30.8125 161.461 30.6562C161.758 30.4844 162.023 30.3203 162.258 30.1641C162.648 29.8203 162.844 29.4688 162.844 29.1094C162.844 27.9531 162.914 26.8672 163.055 25.8516C163.211 24.8203 163.289 23.8125 163.289 22.8281C163.289 22.7188 163.273 22.6016 163.242 22.4766C163.227 22.3516 163.156 22.2891 163.031 22.2891C162.891 22.2891 162.75 22.3125 162.609 22.3594C162.484 22.3906 162.367 22.4219 162.258 22.4531C161.57 22.7031 160.898 22.9766 160.242 23.2734C159.586 23.5703 158.938 23.875 158.297 24.1875C157.859 24.4219 157.469 24.7344 157.125 25.125C156.781 25.5156 156.492 25.9453 156.258 26.4141C156.023 26.8828 155.844 27.375 155.719 27.8906C155.594 28.3906 155.531 28.875 155.531 29.3438Z" fill="black"/>
<path d="M174.094 33.1172C174.094 33.0391 174.102 32.9219 174.117 32.7656C174.148 32.5938 174.25 32.5078 174.422 32.5078H177.141C177.281 32.5078 177.43 32.4609 177.586 32.3672C177.742 32.2734 177.82 32.1484 177.82 31.9922V18.1172C177.82 17.3828 177.797 16.7422 177.75 16.1953C177.703 15.6484 177.555 15.2344 177.305 14.9531C177.195 14.7812 177.086 14.6719 176.977 14.625C176.883 14.5781 176.805 14.5391 176.742 14.5078C176.664 14.4766 176.578 14.4531 176.484 14.4375C176.406 14.4219 176.312 14.4141 176.203 14.4141H175.711C175.398 14.4141 175.023 14.4219 174.586 14.4375C174.148 14.4531 173.781 14.4766 173.484 14.5078C173.422 14.5078 173.352 14.5 173.273 14.4844C173.195 14.4531 173.156 14.4062 173.156 14.3438C173.156 14.1719 173.188 14.0703 173.25 14.0391C173.328 14.0078 173.422 13.9609 173.531 13.8984C174.141 13.6953 174.805 13.5234 175.523 13.3828C176.242 13.2266 176.93 13.0625 177.586 12.8906C177.633 12.8906 177.734 12.8672 177.891 12.8203C178.062 12.7578 178.234 12.6953 178.406 12.6328C178.594 12.5703 178.773 12.5078 178.945 12.4453C179.117 12.3828 179.242 12.3359 179.32 12.3047C179.523 12.2422 179.727 12.1562 179.93 12.0469C180.148 11.9219 180.367 11.8047 180.586 11.6953C180.805 11.5859 181.016 11.4922 181.219 11.4141C181.438 11.3359 181.656 11.2969 181.875 11.2969C181.953 11.2969 182.023 11.3359 182.086 11.4141C182.164 11.4922 182.203 11.6016 182.203 11.7422V26.9531C182.203 27.5156 182.188 27.9844 182.156 28.3594C182.141 28.7188 182.117 29.0547 182.086 29.3672C182.055 29.6641 182.023 29.9688 181.992 30.2812C181.977 30.5781 181.969 30.9453 181.969 31.3828C181.969 31.8359 182.016 32.1406 182.109 32.2969C182.219 32.4375 182.523 32.5078 183.023 32.5078C183.195 32.5078 183.461 32.4922 183.82 32.4609C184.18 32.4141 184.484 32.3906 184.734 32.3906C184.859 32.3906 184.992 32.4062 185.133 32.4375C185.289 32.4531 185.43 32.4922 185.555 32.5547C185.695 32.6172 185.805 32.7031 185.883 32.8125C185.977 32.9219 186.023 33.0625 186.023 33.2344C186.023 33.3438 186 33.4375 185.953 33.5156C185.922 33.5938 185.836 33.6328 185.695 33.6328C184.555 33.6328 183.523 33.6172 182.602 33.5859C181.695 33.5703 180.836 33.5625 180.023 33.5625C178.633 33.5625 177.508 33.625 176.648 33.75C175.789 33.875 175.18 33.9375 174.82 33.9375C174.336 33.9375 174.094 33.6641 174.094 33.1172ZM177.305 2.39062C177.305 1.96875 177.383 1.60938 177.539 1.3125C177.695 1 177.898 0.75 178.148 0.5625C178.414 0.359375 178.719 0.21875 179.062 0.140625C179.406 0.046875 179.766 0 180.141 0C180.484 0 180.812 0.0625 181.125 0.1875C181.438 0.3125 181.711 0.484375 181.945 0.703125C182.18 0.921875 182.359 1.17969 182.484 1.47656C182.625 1.77344 182.695 2.08594 182.695 2.41406C182.695 2.83594 182.625 3.20312 182.484 3.51562C182.344 3.8125 182.148 4.05469 181.898 4.24219C181.648 4.42969 181.352 4.57031 181.008 4.66406C180.68 4.74219 180.32 4.78125 179.93 4.78125C179.117 4.78125 178.477 4.59375 178.008 4.21875C177.539 3.84375 177.305 3.23438 177.305 2.39062Z" fill="black"/>
</svg>
