<svg width="110" height="110" viewBox="0 0 110 110" fill="none" xmlns="http://www.w3.org/2000/svg">
<g clip-path="url(#clip0_16_116)">
<path d="M106.757 21.5873C106.215 21.7457 105.673 21.8932 105.13 22.0306C101.816 22.8676 101.511 21.7631 103.911 19.3263C104.986 18.2344 105.935 17.0468 106.76 15.764C108.609 12.8876 107.005 11.6332 103.86 12.9768C102.738 13.4561 101.598 13.8907 100.441 14.2782C97.2008 15.3665 92.6022 13.7248 89.7147 11.8934C86.0692 9.58163 81.9262 8.42636 77.2843 8.42636C70.7822 8.42636 65.2402 10.7195 60.6549 15.3021C56.0711 19.8872 53.778 25.4308 53.778 31.9313C53.778 32.8203 53.8288 33.7229 53.9291 34.638C54.0938 36.1275 51.5852 37.2073 48.1999 36.7292C40.877 35.6953 33.9195 33.4764 27.326 30.075C20.7869 26.702 15.0156 22.4575 10.0132 17.3411C7.62193 14.8959 4.38779 15.1065 3.49493 18.4074C2.95999 20.3861 2.69394 22.4439 2.69394 24.5813C2.69394 28.6091 3.6398 32.3448 5.53193 35.7884C6.47293 37.5021 7.57499 39.0535 8.84052 40.4416C10.9692 42.7782 10.6434 44.134 7.6804 43.3033C4.71859 42.4725 2.54806 41.2392 2.54806 41.3197C2.54806 41.4002 2.54806 41.4658 2.54806 41.4658C2.54806 47.1405 4.32992 52.1268 7.89587 56.4197C10.0925 59.0645 12.6444 61.1075 15.5506 62.5464C18.6152 64.0645 20.0428 64.9112 18.3291 65.1329C17.2952 65.2667 16.2551 65.3335 15.2089 65.3335C14.5007 65.3335 13.7578 65.3013 12.9827 65.2357C11.7568 65.1317 11.5365 67.6861 13.395 70.5564C14.8722 72.8372 16.7629 74.8443 19.0661 76.578C21.4089 78.3424 23.9336 79.609 26.6365 80.3804C29.9252 81.3178 30.5852 83.0254 27.653 84.7836C20.397 89.1374 12.3672 91.314 3.56474 91.314C2.57295 91.314 1.62688 91.2917 0.723103 91.2484C-0.845712 91.173 0.206774 92.5547 3.23535 94.1409C12.699 99.0976 22.9477 101.574 33.9828 101.574C42.3261 101.574 50.1614 100.253 57.488 97.6091C64.8119 94.9655 71.0712 91.4229 76.2618 86.9839C81.4524 82.5449 85.9286 77.4397 89.689 71.6658C93.4483 65.8921 96.2491 59.8643 98.0941 53.5829C99.9364 47.3002 100.859 41.0051 100.859 34.6977C100.859 34.1293 100.854 33.6191 100.845 33.1697C100.828 32.3252 103.062 30.0394 105.556 27.7005C106.681 26.6444 107.755 25.536 108.78 24.3735C111.042 21.8064 110.04 20.6301 106.757 21.5873Z" fill="black"/>
</g>
<defs>
<clipPath id="clip0_16_116">
<rect width="110" height="110" fill="white"/>
</clipPath>
</defs>
</svg>
